<svg width="72" height="21" viewBox="0 0 72 21" fill="none" xmlns="http://www.w3.org/2000/svg">
<path d="M69.7041 11.4895H66.7368C66.3165 11.4895 66.0398 11.6125 65.9065 11.8585C65.763 12.0737 65.6913 12.3249 65.6913 12.6119V17.0399C65.6913 17.3064 65.7733 17.5114 65.9373 17.6549C66.1013 17.7881 66.3729 17.8547 66.7521 17.8547H68.3358C68.7048 17.8547 68.8893 18.0956 68.8893 18.5774C68.8893 18.7824 68.8431 18.9566 68.7509 19.1001C68.6689 19.2334 68.5305 19.3 68.3358 19.3H66.4754C65.8296 19.3 65.2556 19.136 64.7534 18.808C64.2511 18.5005 64 17.9163 64 17.0553V12.4735C64 12.0532 64.0666 11.6894 64.1999 11.3819C64.3331 11.0744 64.5433 10.8232 64.8303 10.6285C65.3735 10.239 65.9168 10.0442 66.46 10.0442H69.7041V7.738C69.7041 7.246 69.986 7 70.5498 7C71.1135 7 71.3954 7.246 71.3954 7.738V18.6543C71.3954 19.1463 71.1135 19.3923 70.5498 19.3923C70.3345 19.3923 70.1398 19.3564 69.9655 19.2846C69.7913 19.2026 69.7041 19.0284 69.7041 18.7619V11.4895Z" fill="#EA5032"/>
<path d="M59.9978 18.61C59.9978 19.102 59.716 19.348 59.1522 19.348C58.568 19.348 58.2758 19.102 58.2758 18.61V12.2448C58.2758 11.4042 58.527 10.82 59.0292 10.492C59.5315 10.164 60.1106 10 60.7666 10H62.5193C62.8986 10 63.0882 10.2409 63.0882 10.7226C63.1087 11.2044 62.9191 11.4453 62.5193 11.4453H60.8896C60.5206 11.4453 60.2797 11.517 60.167 11.6605C60.0542 11.804 59.9978 12.0039 59.9978 12.2601V18.61Z" fill="#EA5032"/>
<path d="M50.4907 19.2558C50.173 19.2558 49.8706 19.2148 49.5836 19.1328C49.2966 19.0405 49.0199 18.9124 48.7534 18.7484V18.7638C48.2511 18.446 48 17.8618 48 17.011V16.2576C48 15.8374 48.0717 15.4735 48.2152 15.166C48.369 14.8483 48.5791 14.5971 48.8456 14.4126H48.8302C49.0865 14.2384 49.3581 14.1103 49.6451 14.0283C49.9321 13.936 50.2089 13.8899 50.4754 13.8899H53.8732V12.46C53.8732 12.2038 53.7913 11.9731 53.6273 11.7681C53.4735 11.5529 53.207 11.4453 52.8278 11.4453H51.0289C50.6394 11.4453 50.3678 11.5426 50.214 11.7374C50.0705 11.9219 49.9987 12.1423 49.9987 12.3985V12.5215C49.9987 13.0545 49.7117 13.321 49.1377 13.321C48.5637 13.321 48.2767 13.0545 48.2767 12.5215V12.3831C48.2767 11.9629 48.3485 11.6093 48.492 11.3223C48.6458 11.0353 48.8507 10.7944 49.107 10.5996H49.0916C49.3581 10.4254 49.6349 10.2819 49.9219 10.1691C50.2191 10.0564 50.501 10 50.7675 10H53.1045C53.3607 10 53.6324 10.0564 53.9194 10.1691C54.2166 10.2819 54.4934 10.4254 54.7496 10.5996H54.7342C55.0007 10.7944 55.2058 11.0506 55.3493 11.3684C55.4928 11.6759 55.5645 12.0346 55.5645 12.4446V18.61C55.5645 19.102 55.2826 19.348 54.7189 19.348C54.6061 19.348 54.4985 19.3429 54.396 19.3326C54.3037 19.3224 54.2166 19.2968 54.1346 19.2558C54.0629 19.2045 54.0014 19.1379 53.9501 19.0559C53.9091 18.9636 53.8886 18.8458 53.8886 18.7023L53.8732 15.3351H50.7675C50.542 15.3351 50.3678 15.3608 50.2448 15.412C50.1218 15.4633 50.0244 15.5453 49.9526 15.658C49.8706 15.8323 49.8091 15.9706 49.7681 16.0731C49.7374 16.1654 49.722 16.273 49.722 16.396V16.9956C49.722 17.2621 49.7989 17.4671 49.9526 17.6106C50.1166 17.7439 50.3934 17.8105 50.7829 17.8105H52.5049C52.8841 17.8105 53.0737 18.0514 53.0737 18.5331C53.0737 18.7381 53.0276 18.9124 52.9354 19.0559C52.8431 19.1891 52.6996 19.2558 52.5049 19.2558H50.4907Z" fill="#EA5032"/>
<path d="M43.92 10C44.1865 10 44.4581 10.0564 44.7349 10.1691C45.0219 10.2819 45.2986 10.4254 45.5651 10.5996H45.5498C45.8163 10.7944 46.0212 11.0506 46.1647 11.3684C46.3082 11.6759 46.38 12.0346 46.38 12.4446V16.8111C46.38 17.6516 46.1033 18.2718 45.5498 18.6715C45.0065 19.061 44.4633 19.2558 43.92 19.2558H41.46C41.1935 19.2558 40.9219 19.2096 40.6451 19.1174C40.3684 19.0251 40.0967 18.8765 39.8302 18.6715C39.2767 18.282 39 17.6619 39 16.8111V12.4446C39 12.0346 39.0717 11.6759 39.2152 11.3684C39.3587 11.0506 39.5637 10.7944 39.8302 10.5996H39.8149C40.0711 10.4254 40.3427 10.2819 40.6297 10.1691C40.9167 10.0564 41.1935 10 41.46 10H43.92ZM43.6432 17.8105C44.0225 17.8105 44.289 17.7029 44.4427 17.4876C44.6067 17.2724 44.6888 17.0418 44.6888 16.7958V12.46C44.6888 12.2038 44.6067 11.9731 44.4427 11.7681C44.289 11.5529 44.0225 11.4453 43.6432 11.4453H41.7368C41.3575 11.4453 41.0859 11.5529 40.9219 11.7681C40.7681 11.9731 40.6912 12.2038 40.6912 12.46V16.7958C40.6912 17.0418 40.7681 17.2724 40.9219 17.4876C41.0859 17.7029 41.3575 17.8105 41.7368 17.8105H43.6432Z" fill="#EA5032"/>
<path d="M35.3806 15.6721C35.3806 15.4364 35.2935 15.2109 35.1193 14.9956C34.945 14.7701 34.6375 14.642 34.1968 14.6112C33.9098 14.9598 33.5612 15.134 33.1512 15.134C32.8027 15.134 32.5055 15.011 32.2595 14.765C32.0135 14.519 31.8905 14.2166 31.8905 13.8579C31.8905 13.4991 32.0135 13.1968 32.2595 12.9507C32.5055 12.7047 32.8027 12.5817 33.1512 12.5817C33.3357 12.5817 33.5151 12.633 33.6894 12.7355C33.8739 12.838 34.0379 12.961 34.1814 13.1045C34.4069 13.0943 34.5811 13.0584 34.7041 12.9969C34.8271 12.9354 34.9142 12.8636 34.9655 12.7816C35.027 12.6894 35.0629 12.5869 35.0731 12.4741C35.0834 12.3614 35.0885 12.2486 35.0885 12.1359V10.583C35.0885 10.3267 35.0065 10.091 34.8425 9.87575C34.6887 9.6605 34.4222 9.55288 34.043 9.55288H30.8296L30.8143 19.7004C30.8143 19.9054 30.7169 20.0643 30.5221 20.177C30.3376 20.2795 30.1326 20.3308 29.9071 20.3308C29.3024 20.3308 29 20.0848 29 19.5928V8.9225C29 8.5535 29.0923 8.3075 29.2768 8.1845C29.4715 8.0615 29.7021 8 29.9686 8H34.4274C34.6939 8 34.9758 8.05125 35.273 8.15375C35.5805 8.25625 35.8675 8.39462 36.134 8.56887H36.1186C36.3851 8.76362 36.5799 9.01987 36.7029 9.33763C36.8361 9.65537 36.9028 10.0244 36.9028 10.4446V12.182C36.9028 12.592 36.8156 12.9302 36.6414 13.1967C36.4671 13.453 36.2826 13.658 36.0879 13.8118C36.2211 13.8938 36.3493 13.9809 36.4723 14.0731C36.5953 14.1551 36.6978 14.2474 36.7798 14.3499C36.913 14.4934 37.0155 14.6625 37.0872 14.8573C37.1692 15.052 37.2103 15.2826 37.2103 15.5491V17.7478C37.2103 18.5883 36.8822 19.2084 36.2262 19.6081C35.8982 19.8131 35.5856 19.9669 35.2884 20.0694C35.0014 20.1719 34.7144 20.2231 34.4274 20.2231H32.1519C31.9776 20.2231 31.8393 20.1514 31.7368 20.0079C31.6445 19.8644 31.5984 19.6748 31.5984 19.439C31.5984 18.9265 31.8136 18.6702 32.2441 18.6702H34.3505C34.7298 18.6702 34.9963 18.5626 35.15 18.3474C35.3038 18.1321 35.3806 17.8913 35.3806 17.6248V15.6721Z" fill="#EA5032"/>
<path d="M21.4259 12.3543C21.4259 12.8463 21.1441 13.0923 20.5803 13.0923C20.0166 13.0923 19.7347 12.8463 19.7347 12.3543V6.17351C19.7347 5.75326 19.8013 5.38939 19.9346 5.08189C20.0678 4.77439 20.2779 4.52326 20.5649 4.32851C21.1082 3.93901 21.6514 3.74426 22.1947 3.74426H24.6701C25.1928 3.74426 25.7361 3.93901 26.2998 4.32851C26.8533 4.71801 27.1301 5.33301 27.1301 6.17351V12.3543C27.1301 12.8463 26.8482 13.0923 26.2844 13.0923C25.7207 13.0923 25.4388 12.8463 25.4388 12.3543V6.31189C25.4388 6.04539 25.3568 5.78914 25.1928 5.54314L25.2082 5.55851C25.0749 5.31251 24.8033 5.18951 24.3933 5.18951H22.4714C22.0512 5.18951 21.7744 5.31251 21.6412 5.55851C21.4977 5.77376 21.4259 6.02489 21.4259 6.31189V12.3543Z" fill="#7084FE"/>
<path d="M12.0718 10.54C12.0718 10.786 12.1487 11.0166 12.3024 11.2319C12.4664 11.4471 12.7381 11.5548 13.1173 11.5548H15.0392C15.4184 11.5548 15.6849 11.4625 15.8387 11.278C16.0027 11.0833 16.0847 10.8629 16.0847 10.6169V10.4478C16.0847 9.96601 16.3666 9.72513 16.9303 9.72513C17.4941 9.72513 17.7759 9.96601 17.7759 10.4478V10.6323C17.7759 11.0628 17.7042 11.4164 17.5607 11.6931C17.4274 11.9699 17.2224 12.2108 16.9457 12.4158C16.4024 12.8053 15.8592 13 15.3159 13H12.7329C12.1897 13 11.6618 12.8053 11.1493 12.4158C10.9033 12.2108 10.7137 11.9545 10.5804 11.647C10.4472 11.3293 10.3806 10.9654 10.3806 10.5554V6.17351C10.3806 5.34326 10.6368 4.72826 11.1493 4.32851C11.4056 4.14401 11.6669 4.00051 11.9334 3.89801C12.2102 3.78526 12.4767 3.72888 12.7329 3.72888H15.3159C15.5619 3.72888 15.8336 3.78013 16.1308 3.88263C16.4281 3.97488 16.7048 4.10301 16.9611 4.26701C17.2071 4.44126 17.4018 4.68213 17.5453 4.98963C17.6991 5.29713 17.7759 5.66101 17.7759 6.08126V8.15688C17.7759 8.39263 17.7042 8.60276 17.5607 8.78726C17.4274 8.97176 17.1763 9.06401 16.8073 9.06401H13.4863C13.1173 9.06401 12.9226 8.82313 12.9021 8.34138C12.9021 7.85963 13.0968 7.61876 13.4863 7.61876H16.1001L16.0847 6.18888C16.0847 5.93263 16.0027 5.70201 15.8387 5.49701C15.6849 5.28176 15.4184 5.17413 15.0392 5.17413H13.1173C12.7381 5.17413 12.4664 5.28176 12.3024 5.49701C12.1487 5.70201 12.0718 5.93263 12.0718 6.18888V10.54Z" fill="#7084FE"/>
<path d="M7.0078 0.9767C7.16155 0.792201 7.3358 0.699951 7.53055 0.699951C7.7458 0.699951 7.96618 0.797326 8.19168 0.992076C8.30443 1.10483 8.39668 1.21758 8.46843 1.33033C8.55043 1.44308 8.59142 1.55583 8.59142 1.66858C8.59142 1.85308 8.5248 2.01195 8.39155 2.1452L6.3313 4.5437L2.31843 9.26383V12.3542C2.31843 12.8462 2.01093 13.0922 1.39593 13.0922C0.791175 13.0922 0.4888 12.8462 0.4888 12.3542V1.45333C0.4888 0.961326 0.791175 0.715326 1.39593 0.715326C2.01093 0.715326 2.31843 0.961326 2.31843 1.45333V6.48095L7.0078 0.9767ZM4.82455 8.27983C4.72205 8.13633 4.6708 7.96208 4.6708 7.75708C4.6708 7.44958 4.79893 7.20358 5.05518 7.01908H5.0398C5.2448 6.87558 5.4498 6.80383 5.6548 6.80383C5.84955 6.80383 6.01355 6.91658 6.1468 7.14208L9.11418 11.4778L9.0988 11.4625C9.19105 11.606 9.23717 11.7597 9.23717 11.9237C9.23717 12.1902 9.10392 12.426 8.83743 12.631H8.8528C8.74005 12.7027 8.63243 12.7591 8.52993 12.8001C8.42742 12.8411 8.33518 12.8616 8.25318 12.8616C8.17118 12.8616 8.08405 12.8308 7.9918 12.7693C7.9098 12.7078 7.8278 12.631 7.7458 12.5387L4.82455 8.27983Z" fill="#7084FE"/>
</svg>
