<svg
  width="120"
  height="120"
  viewBox="0 0 120 120"
  fill="none"
  xmlns="http://www.w3.org/2000/svg"
>
  <!-- Main diamond shape -->
  <g>
    <!-- Bottom half - darker facets -->
    <path
      d="M60 95 L25 45 L60 45 Z"
      fill="#a8d5e2"
    />
    <path
      d="M60 95 L60 45 L95 45 Z"
      fill="#c8e5f0"
    />
    
    <!-- Top half facets -->
    <path
      d="M60 25 L35 45 L60 45 Z"
      fill="#d5f0f5"
    />
    <path
      d="M60 25 L60 45 L85 45 Z"
      fill="#e8f7fa"
    />
    <path
      d="M35 45 L25 45 L45 25 L60 25 Z"
      fill="#b8e0ea"
    />
    <path
      d="M85 45 L95 45 L75 25 L60 25 Z"
      fill="#f0fafc"
    />
    
    <!-- Side facets -->
    <path
      d="M25 45 L20 35 L45 25 Z"
      fill="#90c8d8"
    />
    <path
      d="M95 45 L100 35 L75 25 Z"
      fill="#ffffff"
    />
    
    <!-- Highlight on top -->
    <path
      d="M60 25 L50 30 L70 30 Z"
      fill="#ffffff"
      opacity="0.7"
    />
  </g>
  
  <!-- Sparkle effect -->
  <g>
    <path
      d="M85 20 L86 15 L87 20 L92 21 L87 22 L86 27 L85 22 L80 21 Z"
      fill="#ffffff"
    />
    <path
      d="M30 35 L30.5 32 L31 35 L34 35.5 L31 36 L30.5 39 L30 36 L27 35.5 Z"
      fill="#ffffff"
      opacity="0.8"
    />
  </g>
</svg>

