<svg width="160" height="160" viewBox="0 0 160 160" fill="none" xmlns="http://www.w3.org/2000/svg">
<path d="M8 80C8 119.738 40.2621 152 80 152C119.738 152 152 119.738 152 80C152 40.2621 119.738 8 80 8C40.2621 8 8 40.2621 8 80Z" fill="url(#paint0_linear_1_1131)"/>
<path d="M8 80C8 119.738 40.2621 152 80 152C119.738 152 152 119.738 152 80C152 40.2621 119.738 8 80 8C40.2621 8 8 40.2621 8 80V80" stroke="#735C00" stroke-width="1.6"/>
<path d="M19.2 80C19.2 113.556 46.4436 140.8 80 140.8C113.556 140.8 140.8 113.556 140.8 80C140.8 46.4435 113.556 19.2 80 19.2C46.4436 19.2 19.2 46.4435 19.2 80V80" stroke="#735C00" stroke-width="0.8" stroke-dasharray="3.2 3.2"/>
<path d="M80 152C119.738 152 152 119.738 152 80C152 40.2621 119.738 8 80 8C40.2621 8 8 40.2621 8 80C8 119.738 40.2621 152 80 152V152" stroke="white" stroke-opacity="0.4" stroke-width="3.2" stroke-dasharray="112 336"/>
<defs>
<linearGradient id="paint0_linear_1_1131" x1="8" y1="8" x2="152" y2="152" gradientUnits="userSpaceOnUse">
<stop stop-color="#F2CA50"/>
<stop offset="1" stop-color="#D4AF37"/>
</linearGradient>
</defs>
</svg>
