<svg width="160" height="160" viewBox="0 0 160 160" fill="none" xmlns="http://www.w3.org/2000/svg">
<path d="M46.4 24H113.6C117.132 24 120 26.8677 120 30.4V129.6C120 133.132 117.132 136 113.6 136H46.4C42.8677 136 40 133.132 40 129.6V30.4C40 26.8677 42.8677 24 46.4 24Z" fill="url(#paint0_linear_1_1072)"/>
<path d="M40 24H120L104 40H56L40 24Z" fill="white" fill-opacity="0.3"/>
<path d="M40 136H120L104 120H56L40 136Z" fill="black" fill-opacity="0.2"/>
<path d="M56 40H104V120H56V40Z" fill="white" fill-opacity="0.1"/>
<path d="M56 40H104V40V120V120H56V120V40V40V40" stroke="white" stroke-width="0.32"/>
<defs>
<linearGradient id="paint0_linear_1_1072" x1="40" y1="24" x2="145.946" y2="99.6757" gradientUnits="userSpaceOnUse">
<stop stop-color="#34D399"/>
<stop offset="1" stop-color="#064E3B"/>
</linearGradient>
</defs>
</svg>
