<svg width="160" height="160" viewBox="0 0 160 160" fill="none" xmlns="http://www.w3.org/2000/svg">
<path d="M80 16L136 40V120L80 144L24 120V40L80 16Z" fill="url(#paint0_linear_1_1111)"/>
<path d="M80 16L136 40L80 64L24 40L80 16Z" fill="white" fill-opacity="0.1"/>
<path d="M80 64L136 120L80 144L24 120L80 64Z" fill="black" fill-opacity="0.4"/>
<path d="M80 16V64V16ZM136 40L80 64L136 40ZM24 40L80 64L24 40Z" fill="black"/>
<path d="M80 16V64V16M136 40L80 64L136 40M24 40L80 64L24 40" stroke="white" stroke-opacity="0.2" stroke-width="0.8"/>
<defs>
<linearGradient id="paint0_linear_1_1111" x1="24" y1="16" x2="150.867" y2="127.009" gradientUnits="userSpaceOnUse">
<stop stop-color="#4C1D95"/>
<stop offset="1" stop-color="#0F172A"/>
</linearGradient>
</defs>
</svg>
